# xmcd CD database file
#
# Track frame offsets:
#	150
#	4965
#	41197
#	53505
#	64870
#	77237
#	90762
#	102502
#	117787
#	134082
#	140880
#	150680
#	164215
#	180112
#
# Disc length: 2619 seconds
#
# Revision: 0
# Processed by: cddbd v1.5.2PL0 Copyright (c) Steve Scherf et al.
# Submitted via: CDex 1.70beta2
#
DISCID=bf0a390e
DTITLE=Various Artist - 私の好きなサラヴァ/オムニバス
DYEAR=1994
DGENRE=Salsa
TTITLE0=フェデリコ(アラン・ルプレスト)
TTITLE1=Comme a la radio(ブリジット・フォンテーヌ)
TTITLE2=No sui do polo norte(ナナ・ヴァスコンセロス)
TTITLE3=Le petit cheval de bois(ピエール・バルー)
TTITLE4=Une fois mais pas deux(ブリジット・フォンテーニヌ)
TTITLE5=La nuit des masques(ピエール・バルー)
TTITLE6=Le jouet casse(ピエール・バルー)
TTITLE7=Des ronds dans l’eau(ピエール・バルー)
TTITLE8=サーカス・メロディ(ルイス・フューレイ)
TTITLE9=L’homme objet(ブリジット・フォンテーヌ)
TTITLE10=Je hais les gosses(アラン・ルプレスト)
TTITLE11=Vivre(ピエール・バルー)
TTITLE12=La Meilleure de mes Copains(アラン・ルプレスト)
TTITLE13=ソング・トゥ・ロルカ(ルイス・フューレイ)
EXTD=YEAR: 1994
EXTT0=
EXTT1=
EXTT2=
EXTT3=
EXTT4=
EXTT5=
EXTT6=
EXTT7=
EXTT8=
EXTT9=
EXTT10=
EXTT11=
EXTT12=
EXTT13=
PLAYORDER=
